<svg width="375" height="178" viewBox="0 0 375 178" fill="none" xmlns="http://www.w3.org/2000/svg">
<circle cx="188" cy="88" r="30" fill="#D84E4E"/>
<path d="M173.667 95.2778L169.778 91.4166C169.5 91.1388 169.366 90.8148 169.375 90.4445C169.384 90.0739 169.518 89.7406 169.778 89.4445C172.111 86.787 174.875 84.7708 178.07 83.3958C181.264 82.0208 184.574 81.3333 188 81.3333C191.426 81.3333 194.734 82.0208 197.924 83.3958C201.113 84.7708 203.88 86.787 206.222 89.4445C206.481 89.7406 206.616 90.0739 206.625 90.4445C206.634 90.8148 206.5 91.1388 206.222 91.4166L202.333 95.2778C202.083 95.5278 201.752 95.6667 201.34 95.6945C200.928 95.7223 200.583 95.6296 200.305 95.4166L195.528 91.8333C195.343 91.6944 195.204 91.5323 195.111 91.347C195.018 91.162 194.972 90.9537 194.972 90.722V85.2778C193.843 84.8703 192.69 84.5739 191.514 84.3887C190.338 84.2037 189.167 84.1112 188 84.1112C186.833 84.1112 185.662 84.2037 184.486 84.3887C183.31 84.5739 182.157 84.8703 181.028 85.2778V90.722C181.028 90.9537 180.981 91.162 180.889 91.347C180.796 91.5323 180.657 91.6944 180.472 91.8333L175.689 95.4245C175.359 95.6692 175.01 95.7784 174.64 95.752C174.271 95.7256 173.947 95.5676 173.667 95.2778ZM178.111 86.4166C177.139 86.9074 176.204 87.4884 175.305 88.1595C174.407 88.8309 173.528 89.5555 172.667 90.3333L174.805 92.5278L178.111 90.0553V86.4166ZM197.75 86.3333V89.8887L201.167 92.4999L203.333 90.3612C202.472 89.5092 201.579 88.7592 200.653 88.1112C199.727 87.4628 198.759 86.8702 197.75 86.3333Z" fill="white"/>
<g filter="url(#filter0_d_894_128)">
<path d="M0 20V20C0 46.2555 21.2843 67.5398 47.5398 67.5398H119.279C135.736 67.5398 149.955 79.0444 153.389 95.1399V95.1399C161.242 131.94 213.758 131.94 221.611 95.1399V95.1399C225.045 79.0443 239.264 67.5398 255.721 67.5398H327.46C353.716 67.5398 375 46.2555 375 20V20V178H0V20Z" fill="#303030"/>
</g>
<defs>
<filter id="filter0_d_894_128" x="-16" y="0" width="407" height="190" filterUnits="userSpaceOnUse" color-interpolation-filters="sRGB">
<feFlood flood-opacity="0" result="BackgroundImageFix"/>
<feColorMatrix in="SourceAlpha" type="matrix" values="0 0 0 0 0 0 0 0 0 0 0 0 0 0 0 0 0 0 127 0" result="hardAlpha"/>
<feOffset dy="-4"/>
<feGaussianBlur stdDeviation="8"/>
<feComposite in2="hardAlpha" operator="out"/>
<feColorMatrix type="matrix" values="0 0 0 0 0 0 0 0 0 0 0 0 0 0 0 0 0 0 0.25 0"/>
<feBlend mode="normal" in2="BackgroundImageFix" result="effect1_dropShadow_894_128"/>
<feBlend mode="normal" in="SourceGraphic" in2="effect1_dropShadow_894_128" result="shape"/>
</filter>
</defs>
</svg>
