<svg width="375" height="108" viewBox="0 0 375 108" fill="none" xmlns="http://www.w3.org/2000/svg">
<g filter="url(#filter0_d_772_359)">
<path d="M0 37.1727L109.606 22.3301C119.846 20.9434 130.194 20.5217 140.513 21.0707L284.319 28.7208C304.914 29.8164 325.529 26.9446 345.041 20.2615L375 10V72.8091H0V37.1727Z" fill="#8EADFF"/>
</g>
<path d="M0 17.35L50.7304 38.4581C77.1235 49.4398 105.917 53.3761 134.289 49.8811L249.143 35.7328C262.989 34.0273 276.998 34.1285 290.818 36.0339L375 47.6409V73.2545H0V17.35Z" fill="#6C8BFE"/>
<path d="M0 72.0295L109.606 57.1869C119.846 55.8002 130.194 55.3786 140.513 55.9275L284.319 63.5776C304.914 64.6732 325.529 61.8014 345.041 55.1183L375 44.8568V107.666H0V72.0295Z" fill="#5271FF"/>
<path d="M0 52.0955L50.7304 73.2036C77.1235 84.1853 105.917 88.1216 134.289 84.6265L249.143 70.4783C262.989 68.7727 276.998 68.8739 290.818 70.7794L375 82.3864V108H0V52.0955Z" fill="#2544CF"/>
<defs>
<filter id="filter0_d_772_359" x="-8" y="0" width="391" height="78.8091" filterUnits="userSpaceOnUse" color-interpolation-filters="sRGB">
<feFlood flood-opacity="0" result="BackgroundImageFix"/>
<feColorMatrix in="SourceAlpha" type="matrix" values="0 0 0 0 0 0 0 0 0 0 0 0 0 0 0 0 0 0 127 0" result="hardAlpha"/>
<feOffset dy="-2"/>
<feGaussianBlur stdDeviation="4"/>
<feComposite in2="hardAlpha" operator="out"/>
<feColorMatrix type="matrix" values="0 0 0 0 0 0 0 0 0 0 0 0 0 0 0 0 0 0 0.25 0"/>
<feBlend mode="normal" in2="BackgroundImageFix" result="effect1_dropShadow_772_359"/>
<feBlend mode="normal" in="SourceGraphic" in2="effect1_dropShadow_772_359" result="shape"/>
</filter>
</defs>
</svg>
