<svg width="40" height="40" viewBox="0 0 40 40" fill="none" xmlns="http://www.w3.org/2000/svg">
<path d="M5.66662 27.2778L1.77787 23.4166C1.50009 23.1388 1.36578 22.8148 1.37495 22.4445C1.38412 22.0739 1.51842 21.7406 1.77787 21.4445C4.1112 18.787 6.87509 16.7708 10.0695 15.3958C13.264 14.0208 16.5741 13.3333 20 13.3333C23.4258 13.3333 26.7337 14.0208 29.9237 15.3958C33.1134 16.7708 35.8795 18.787 38.222 21.4445C38.4815 21.7406 38.6158 22.0739 38.625 22.4445C38.6341 22.8148 38.4998 23.1388 38.222 23.4166L34.3333 27.2778C34.0833 27.5278 33.7523 27.6667 33.3404 27.6945C32.9281 27.7223 32.5831 27.6296 32.3054 27.4166L27.5279 23.8333C27.3426 23.6944 27.2037 23.5323 27.1112 23.347C27.0184 23.162 26.972 22.9537 26.972 22.722V17.2778C25.8426 16.8703 24.6898 16.5739 23.5137 16.3887C22.3379 16.2037 21.1666 16.1112 20 16.1112C18.8333 16.1112 17.662 16.2037 16.4862 16.3887C15.3101 16.5739 14.1573 16.8703 13.0279 17.2778V22.722C13.0279 22.9537 12.9815 23.162 12.8887 23.347C12.7962 23.5323 12.6573 23.6944 12.472 23.8333L7.68912 27.4245C7.3594 27.6692 7.00981 27.7784 6.64037 27.752C6.2712 27.7256 5.94662 27.5676 5.66662 27.2778ZM10.1112 18.4166C9.13898 18.9074 8.2037 19.4884 7.30537 20.1595C6.40731 20.8309 5.52773 21.5555 4.66662 22.3333L6.80537 24.5278L10.1112 22.0553V18.4166ZM29.75 18.3333V21.8887L33.1666 24.4999L35.3333 22.3612C34.4722 21.5092 33.5787 20.7592 32.6529 20.1112C31.7268 19.4628 30.7591 18.8702 29.75 18.3333Z" fill="white"/>
</svg>
