<svg fill="#000000" height="114" viewBox="0 0 114 114" width="114"
    xmlns="http://www.w3.org/2000/svg">
    <path
        d="M57.57 7.52394C44.574 9.34794 30.21 17.3849 21.261 27.8729C12.711 37.8479 6.897 52.2689 6.84 63.3839V66.6899H10.773H14.763L15.105 63.3839C16.131 53.7509 19.836 43.5479 24.738 36.7649C28.158 32.0339 33.63 26.7899 38.532 23.5979C45.999 18.6959 53.352 16.1879 63.441 15.1049L66.69 14.7629V10.7729V6.83994L64.011 6.89694C62.472 6.95394 59.622 7.23894 57.57 7.52394Z" />
    <path
        d="M60.705 23.4269C55.518 24.1679 51.471 25.5359 46.683 27.9869C33.288 34.9409 24.396 48.1079 22.971 63.0419L22.629 66.7469L26.847 66.5759L31.065 66.4049L31.464 62.8139C33.231 46.9109 45.657 34.3139 62.13 31.6919L66.405 31.0079V27.0749C66.405 22.5149 66.519 22.5719 60.705 23.4269Z" />
    <path
        d="M59.85 40.185C48.735 43.377 40.47 52.7819 39.501 63.3839L39.159 66.6899H43.206H47.253L47.595 64.5239C49.077 55.4609 55.404 49.1339 64.581 47.5949L66.69 47.2529V43.32V39.33L64.581 39.387C63.384 39.387 61.275 39.786 59.85 40.185Z" />
    <path
        d="M88.179 45.03C86.982 45.372 85.215 45.999 84.189 46.512C83.163 46.968 74.556 55.29 65.094 64.866C45.771 84.417 45.03 85.386 45.03 91.77C45.087 100.662 51.585 107.16 60.42 107.16C66.747 107.103 67.431 106.647 86.526 87.609C96.045 78.147 104.481 69.312 105.279 67.944C107.274 64.581 107.73 58.653 106.305 54.891C104.994 51.528 101.289 47.424 98.325 46.113C95.418 44.859 90.972 44.346 88.179 45.03ZM96.786 50.673C99.408 51.984 100.605 53.295 101.745 56.031C102.885 58.767 102.828 61.902 101.517 64.695C100.89 66.063 97.014 70.395 92.112 75.24L83.79 83.505L76.266 75.924L68.685 68.4L77.235 59.85C81.909 55.176 86.526 50.958 87.495 50.445C89.889 49.305 94.221 49.362 96.786 50.673Z" />
</svg>
